<svg width="1200" height="820" viewBox="0 0 1200 820" fill="none" xmlns="http://www.w3.org/2000/svg">
  <rect width="1200" height="820" fill="#07090F"/>
  <rect x="82" y="78" width="1036" height="664" rx="42" fill="#101522" stroke="rgba(255,255,255,.16)" stroke-width="2"/>
  <rect x="146" y="142" width="330" height="536" rx="30" fill="#F8FAFC"/>
  <rect x="184" y="196" width="254" height="20" rx="10" fill="#111827"/>
  <rect x="184" y="252" width="210" height="14" rx="7" fill="#6EE7F9"/>
  <rect x="184" y="292" width="236" height="14" rx="7" fill="#4ADE80"/>
  <rect x="184" y="332" width="190" height="14" rx="7" fill="#FB7185"/>
  <rect x="184" y="410" width="254" height="160" rx="24" fill="#DDE8F0"/>
  <path d="M548 276H704" stroke="#6EE7F9" stroke-width="18" stroke-linecap="round"/>
  <path d="M548 410H704" stroke="#4ADE80" stroke-width="18" stroke-linecap="round"/>
  <path d="M548 544H704" stroke="#FB7185" stroke-width="18" stroke-linecap="round"/>
  <path d="M718 276H786" stroke="#6EE7F9" stroke-width="12" stroke-linecap="round"/>
  <path d="M718 410H786" stroke="#4ADE80" stroke-width="12" stroke-linecap="round"/>
  <path d="M718 544H786" stroke="#FB7185" stroke-width="12" stroke-linecap="round"/>
  <rect x="836" y="184" width="198" height="452" rx="30" fill="#0A0F1B" stroke="rgba(255,255,255,.12)"/>
  <path d="M884 250H990" stroke="#F8FAFC" stroke-width="16" stroke-linecap="round"/>
  <path d="M884 310H970" stroke="#6EE7F9" stroke-width="12" stroke-linecap="round"/>
  <path d="M884 370H1004" stroke="#4ADE80" stroke-width="12" stroke-linecap="round"/>
  <path d="M884 430H952" stroke="#FB7185" stroke-width="12" stroke-linecap="round"/>
  <path d="M884 520H1000" stroke="#FACC15" stroke-width="12" stroke-linecap="round"/>
</svg>
